<mxfile host="app.diagrams.net" modified="2024-03-05T23:38:55.706Z" agent="Mozilla/5.0 (Windows NT 10.0; Win64; x64) AppleWebKit/537.36 (KHTML, like Gecko) Chrome/121.0.0.0 Safari/537.36 OPR/107.0.0.0" etag="AHz6X_AIlgeOEne3IfFL" version="24.0.1" type="device">
  <diagram id="C5RBs43oDa-KdzZeNtuy" name="Page-1">
    <mxGraphModel dx="1990" dy="1083" grid="1" gridSize="10" guides="1" tooltips="1" connect="1" arrows="1" fold="1" page="1" pageScale="1" pageWidth="400" pageHeight="370" background="#FF3333" math="0" shadow="0">
      <root>
        <mxCell id="WIyWlLk6GJQsqaUBKTNV-0" />
        <mxCell id="WIyWlLk6GJQsqaUBKTNV-1" parent="WIyWlLk6GJQsqaUBKTNV-0" />
        <mxCell id="eX62rvnDOvcnilra_7cb-43" value="Controller" style="swimlane;whiteSpace=wrap;html=1;startSize=30;rounded=1;swimlaneFillColor=#99FFFF;fillColor=#99FFFF;" parent="WIyWlLk6GJQsqaUBKTNV-1" vertex="1">
          <mxGeometry x="200" y="600" width="500" height="250" as="geometry">
            <mxRectangle x="360" y="170" width="200" height="40" as="alternateBounds" />
          </mxGeometry>
        </mxCell>
        <mxCell id="Z6rb4tQ8QLytnb7Q4oej-3" value="&lt;p style=&quot;margin:0px;margin-top:4px;text-align:center;&quot;&gt;&lt;i&gt;&amp;lt;&amp;lt;Controller&amp;gt;&lt;/i&gt;&lt;/p&gt;&lt;p style=&quot;margin:0px;margin-top:4px;text-align:center;&quot;&gt;LanguageController&lt;/p&gt;&lt;p style=&quot;margin:0px;margin-top:4px;text-align:center;&quot;&gt;&lt;br&gt;&lt;/p&gt;&lt;p style=&quot;margin: 4px 0px 0px;&quot;&gt;-languageService : LanguageService&lt;/p&gt;&lt;p style=&quot;margin: 4px 0px 0px;&quot;&gt;&lt;br&gt;&lt;/p&gt;&lt;p style=&quot;margin: 4px 0px 0px;&quot;&gt;&lt;br&gt;&lt;/p&gt;&lt;p style=&quot;margin: 4px 0px 0px;&quot;&gt;+refreshLanguages() : ResponseEntity&amp;lt;List&amp;lt;Languages&amp;gt;&amp;gt;&lt;/p&gt;" style="verticalAlign=top;align=left;overflow=fill;html=1;whiteSpace=wrap;" vertex="1" parent="eX62rvnDOvcnilra_7cb-43">
          <mxGeometry x="15" y="50" width="470" height="170" as="geometry" />
        </mxCell>
        <mxCell id="Z6rb4tQ8QLytnb7Q4oej-4" value="" style="line;strokeWidth=1;fillColor=none;align=left;verticalAlign=middle;spacingTop=-1;spacingLeft=3;spacingRight=3;rotatable=0;labelPosition=right;points=[];portConstraint=eastwest;strokeColor=inherit;" vertex="1" parent="eX62rvnDOvcnilra_7cb-43">
          <mxGeometry x="15" y="131" width="470" height="8" as="geometry" />
        </mxCell>
        <mxCell id="Si7FADE8FGYKkLt8ijMX-27" value="Model View" style="swimlane;whiteSpace=wrap;html=1;startSize=30;rounded=1;swimlaneFillColor=#99FFFF;fillColor=#99FFFF;" parent="WIyWlLk6GJQsqaUBKTNV-1" vertex="1">
          <mxGeometry x="850" y="70" width="1210" height="840" as="geometry">
            <mxRectangle x="360" y="170" width="200" height="40" as="alternateBounds" />
          </mxGeometry>
        </mxCell>
        <mxCell id="Si7FADE8FGYKkLt8ijMX-28" value="&lt;p style=&quot;margin:0px;margin-top:4px;text-align:center;&quot;&gt;&lt;i&gt;&amp;lt;&amp;lt;Implementation&amp;gt;&amp;gt;&lt;/i&gt;&lt;br&gt;&lt;/p&gt;&lt;p style=&quot;margin:0px;margin-top:4px;text-align:center;&quot;&gt;&lt;b&gt;&lt;i&gt;LanguagesImpl&lt;/i&gt;&lt;/b&gt;&lt;/p&gt;&lt;p style=&quot;margin:0px;margin-left:4px;&quot;&gt;- repo: LangRepo&lt;span style=&quot;background-color: initial;&quot;&gt;&amp;nbsp;&lt;/span&gt;&lt;/p&gt;&lt;hr size=&quot;1&quot;&gt;&lt;p style=&quot;margin:0px;margin-left:4px;&quot;&gt;&lt;/p&gt;&lt;div&gt;&lt;div&gt;&amp;nbsp;+ refreshLanguages(): List&amp;lt;Languages&amp;gt;&amp;nbsp; &amp;nbsp; &amp;nbsp; &amp;nbsp; &amp;nbsp; &amp;nbsp; &amp;nbsp; &amp;nbsp;&lt;/div&gt;&lt;/div&gt;" style="verticalAlign=top;align=left;overflow=fill;html=1;whiteSpace=wrap;" parent="Si7FADE8FGYKkLt8ijMX-27" vertex="1">
          <mxGeometry x="370" y="115" width="310" height="110" as="geometry" />
        </mxCell>
        <mxCell id="Si7FADE8FGYKkLt8ijMX-30" value="Implements" style="endArrow=open;endSize=12;dashed=1;html=1;rounded=0;" parent="Si7FADE8FGYKkLt8ijMX-27" source="Si7FADE8FGYKkLt8ijMX-28" edge="1">
          <mxGeometry width="160" relative="1" as="geometry">
            <mxPoint x="90" y="-45" as="sourcePoint" />
            <mxPoint x="780" y="255" as="targetPoint" />
          </mxGeometry>
        </mxCell>
        <mxCell id="Si7FADE8FGYKkLt8ijMX-31" value="&lt;p style=&quot;margin:0px;margin-top:4px;text-align:center;&quot;&gt;&lt;i&gt;&amp;lt;&amp;lt;Interface&amp;gt;&amp;gt;&lt;/i&gt;&lt;br&gt;&lt;/p&gt;&lt;p style=&quot;margin:0px;margin-top:4px;text-align:center;&quot;&gt;&lt;b&gt;&lt;i&gt;LanguageService&lt;/i&gt;&lt;/b&gt;&lt;/p&gt;&lt;hr size=&quot;1&quot;&gt;&lt;p style=&quot;margin:0px;margin-left:4px;&quot;&gt;&lt;/p&gt;&lt;div&gt;&lt;div&gt;&amp;nbsp;+ refreshLanguages(): List&amp;lt;Languages&amp;gt;&amp;nbsp; &amp;nbsp; &amp;nbsp; &amp;nbsp; &amp;nbsp; &amp;nbsp; &amp;nbsp; &amp;nbsp;&lt;/div&gt;&lt;/div&gt;" style="verticalAlign=top;align=left;overflow=fill;html=1;whiteSpace=wrap;" parent="Si7FADE8FGYKkLt8ijMX-27" vertex="1">
          <mxGeometry x="780" y="200" width="310" height="80" as="geometry" />
        </mxCell>
        <mxCell id="wE6TYwM9tN1WbaArxvTR-0" value="&lt;p style=&quot;margin:0px;margin-top:4px;text-align:center;&quot;&gt;&lt;i&gt;&amp;lt;&amp;lt;Model&amp;gt;&amp;gt;&lt;/i&gt;&lt;br&gt;&lt;/p&gt;&lt;p style=&quot;margin:0px;margin-top:4px;text-align:center;&quot;&gt;&lt;b&gt;&lt;i&gt;Languages&lt;/i&gt;&lt;/b&gt;&lt;/p&gt;&lt;p style=&quot;margin:0px;margin-left:4px;&quot;&gt; - language_id: int&amp;nbsp; &amp;nbsp; &amp;nbsp; &amp;nbsp; &amp;nbsp; &amp;nbsp; &amp;nbsp; &amp;nbsp; &amp;nbsp; &amp;nbsp; &amp;nbsp; &amp;nbsp;&lt;/p&gt;&lt;p style=&quot;margin:0px;margin-left:4px;&quot;&gt; - language_name: String&amp;nbsp; &amp;nbsp; &amp;nbsp; &amp;nbsp; &amp;nbsp; &amp;nbsp; &amp;nbsp;&lt;span style=&quot;background-color: initial;&quot;&gt;&amp;nbsp; &amp;nbsp; &amp;nbsp; &amp;nbsp; &amp;nbsp; &amp;nbsp;&lt;/span&gt;&lt;/p&gt;&lt;hr size=&quot;1&quot;&gt;&lt;p style=&quot;margin:0px;margin-left:4px;&quot;&gt;&lt;span style=&quot;background-color: initial;&quot;&gt;&amp;nbsp;+&lt;/span&gt;&lt;span style=&quot;background-color: initial;&quot;&gt;NoArgsConstructor()&lt;/span&gt;&lt;br&gt;&lt;/p&gt;&lt;p style=&quot;margin: 0px 0px 0px 4px;&quot;&gt;+AllArgsConstructor()&lt;/p&gt;&lt;p style=&quot;margin: 0px 0px 0px 4px;&quot;&gt;+Getter()&lt;/p&gt;&lt;p style=&quot;margin: 0px 0px 0px 4px;&quot;&gt;&lt;span style=&quot;background-color: initial;&quot;&gt;+Setter()&lt;/span&gt;&lt;/p&gt;&lt;p style=&quot;margin: 0px 0px 0px 4px;&quot;&gt;&lt;br&gt;&lt;/p&gt;" style="verticalAlign=top;align=left;overflow=fill;html=1;whiteSpace=wrap;" parent="Si7FADE8FGYKkLt8ijMX-27" vertex="1">
          <mxGeometry x="810" y="430" width="260" height="150" as="geometry" />
        </mxCell>
        <mxCell id="wE6TYwM9tN1WbaArxvTR-1" value="Use" style="endArrow=open;endSize=12;dashed=1;html=1;rounded=0;exitX=0.5;exitY=1;exitDx=0;exitDy=0;entryX=0.5;entryY=0;entryDx=0;entryDy=0;" parent="Si7FADE8FGYKkLt8ijMX-27" source="Si7FADE8FGYKkLt8ijMX-31" target="wE6TYwM9tN1WbaArxvTR-0" edge="1">
          <mxGeometry width="160" relative="1" as="geometry">
            <mxPoint x="730" y="380" as="sourcePoint" />
            <mxPoint x="890" y="380" as="targetPoint" />
          </mxGeometry>
        </mxCell>
        <mxCell id="Z6rb4tQ8QLytnb7Q4oej-1" value="Use" style="endArrow=open;endSize=12;dashed=1;html=1;rounded=0;exitX=0.5;exitY=1;exitDx=0;exitDy=0;entryX=0.5;entryY=0;entryDx=0;entryDy=0;" edge="1" parent="Si7FADE8FGYKkLt8ijMX-27" source="Si7FADE8FGYKkLt8ijMX-28" target="Z6rb4tQ8QLytnb7Q4oej-2">
          <mxGeometry width="160" relative="1" as="geometry">
            <mxPoint x="215" y="330" as="sourcePoint" />
            <mxPoint x="290" y="570" as="targetPoint" />
          </mxGeometry>
        </mxCell>
        <mxCell id="Z6rb4tQ8QLytnb7Q4oej-2" value="&lt;p style=&quot;margin:0px;margin-top:4px;text-align:center;&quot;&gt;&lt;i&gt;&amp;lt;&amp;lt;Interface&amp;gt;&amp;gt;&lt;/i&gt;&lt;/p&gt;&lt;p style=&quot;margin:0px;margin-top:4px;text-align:center;&quot;&gt;&lt;i&gt;LangRepo&lt;/i&gt;&lt;/p&gt;&lt;hr size=&quot;1&quot;&gt;&lt;p style=&quot;margin:0px;margin-left:4px;&quot;&gt;+getAllLanguageNames() : List&amp;lt;String&amp;gt;&lt;/p&gt;&lt;p style=&quot;margin:0px;margin-left:4px;&quot;&gt;+findLanguageById(langID: int) : Languages&lt;/p&gt;&lt;p style=&quot;margin:0px;margin-left:4px;&quot;&gt;+findLanguageByName(langName: String) : Languages&lt;/p&gt;&lt;p style=&quot;margin:0px;margin-left:4px;&quot;&gt;+deleteLanguageByID(langID: int)&lt;/p&gt;&lt;p style=&quot;margin:0px;margin-left:4px;&quot;&gt;+getLanguages(): List&amp;lt;Languages&amp;gt;&lt;/p&gt;" style="verticalAlign=top;align=left;overflow=fill;html=1;whiteSpace=wrap;" vertex="1" parent="Si7FADE8FGYKkLt8ijMX-27">
          <mxGeometry x="390" y="500" width="280" height="160" as="geometry" />
        </mxCell>
        <mxCell id="eX62rvnDOvcnilra_7cb-47" style="edgeStyle=orthogonalEdgeStyle;rounded=0;orthogonalLoop=1;jettySize=auto;html=1;dashed=1;curved=1;strokeWidth=2;exitX=1;exitY=0.5;exitDx=0;exitDy=0;entryX=0;entryY=0.5;entryDx=0;entryDy=0;" parent="WIyWlLk6GJQsqaUBKTNV-1" source="eX62rvnDOvcnilra_7cb-43" edge="1" target="Si7FADE8FGYKkLt8ijMX-28">
          <mxGeometry relative="1" as="geometry">
            <Array as="points">
              <mxPoint x="700" y="470" />
              <mxPoint x="720" y="470" />
              <mxPoint x="720" y="440" />
              <mxPoint x="750" y="440" />
              <mxPoint x="750" y="380" />
              <mxPoint x="900" y="380" />
              <mxPoint x="900" y="250" />
              <mxPoint x="1080" y="250" />
              <mxPoint x="1080" y="240" />
            </Array>
            <mxPoint x="1020" y="1060" as="sourcePoint" />
            <mxPoint x="1440" y="450" as="targetPoint" />
          </mxGeometry>
        </mxCell>
      </root>
    </mxGraphModel>
  </diagram>
</mxfile>
